<svg width="32" height="36" viewBox="0 0 32 36" fill="none" xmlns="http://www.w3.org/2000/svg">
<g id="user-injured-solid 1" clip-path="url(#clip0_171_1792)">
<path id="Vector" d="M16.875 5.625H24.0961C23.5406 4.25391 22.6617 3.05859 21.5508 2.11641L16.875 5.625ZM19.5258 0.829688C18.3727 0.295313 17.1 0 15.75 0C11.9742 0 8.73984 2.32734 7.40391 5.625H13.1273L19.5258 0.829688ZM15.75 18C20.7211 18 24.75 13.9711 24.75 9C24.75 8.62031 24.7289 8.24063 24.6797 7.875H6.82031C6.77109 8.24063 6.75 8.62031 6.75 9C6.75 13.9711 10.7789 18 15.75 18ZM8.71875 21.9656C8.03672 22.1836 7.37578 22.4578 6.75 22.7883V36H17.1352L12.7617 28.7016L8.71875 21.9656ZM11.0391 21.4594L14.3648 27H19.125C22.2328 27 24.75 29.5172 24.75 32.625C24.75 33.8906 24.3281 35.0578 23.625 36H29.4117C30.5648 36 31.5 35.0648 31.5 33.9117C31.5 26.9859 25.8891 21.375 18.9633 21.375H12.5367C12.0305 21.375 11.5312 21.4031 11.0391 21.4664V21.4594ZM0 33.9117C0 35.0648 0.935156 36 2.08828 36H4.5V24.2859C1.75078 26.5852 0 30.0445 0 33.9117ZM22.5 32.625C22.5 30.7617 20.9883 29.25 19.125 29.25H15.7148L19.7297 35.9438C21.3047 35.6625 22.5 34.2844 22.5 32.625Z" fill="white"/>
</g>
<defs>
<clipPath id="clip0_171_1792">
<rect width="31.5" height="36" fill="white"/>
</clipPath>
</defs>
</svg>
