<svg width="9" height="12" viewBox="0 0 9 12" fill="none" xmlns="http://www.w3.org/2000/svg">
<g id="mobile-retro-solid 1" clip-path="url(#clip0_63_224)">
<path id="Vector" d="M0 1.5C0 0.672656 0.801463 0 1.78723 0H7.14894C8.13471 0 8.93617 0.672656 8.93617 1.5V10.5C8.93617 11.3273 8.13471 12 7.14894 12H1.78723C0.801463 12 0 11.3273 0 10.5V1.5ZM1.78723 3.75V5.25C1.78723 5.66484 2.18657 6 2.68085 6H6.25532C6.7496 6 7.14894 5.66484 7.14894 5.25V3.75C7.14894 3.33516 6.7496 3 6.25532 3H2.68085C2.18657 3 1.78723 3.33516 1.78723 3.75ZM2.23404 8.25C2.41179 8.25 2.58227 8.19074 2.70795 8.08525C2.83364 7.97976 2.90426 7.83668 2.90426 7.6875C2.90426 7.53832 2.83364 7.39524 2.70795 7.28975C2.58227 7.18426 2.41179 7.125 2.23404 7.125C2.05629 7.125 1.88582 7.18426 1.76013 7.28975C1.63444 7.39524 1.56383 7.53832 1.56383 7.6875C1.56383 7.83668 1.63444 7.97976 1.76013 8.08525C1.88582 8.19074 2.05629 8.25 2.23404 8.25ZM2.90426 9.5625C2.90426 9.41332 2.83364 9.27024 2.70795 9.16475C2.58227 9.05926 2.41179 9 2.23404 9C2.05629 9 1.88582 9.05926 1.76013 9.16475C1.63444 9.27024 1.56383 9.41332 1.56383 9.5625C1.56383 9.71168 1.63444 9.85476 1.76013 9.96025C1.88582 10.0657 2.05629 10.125 2.23404 10.125C2.41179 10.125 2.58227 10.0657 2.70795 9.96025C2.83364 9.85476 2.90426 9.71168 2.90426 9.5625ZM4.46809 8.25C4.64584 8.25 4.81631 8.19074 4.942 8.08525C5.06769 7.97976 5.1383 7.83668 5.1383 7.6875C5.1383 7.53832 5.06769 7.39524 4.942 7.28975C4.81631 7.18426 4.64584 7.125 4.46809 7.125C4.29033 7.125 4.11986 7.18426 3.99417 7.28975C3.86848 7.39524 3.79787 7.53832 3.79787 7.6875C3.79787 7.83668 3.86848 7.97976 3.99417 8.08525C4.11986 8.19074 4.29033 8.25 4.46809 8.25ZM5.1383 9.5625C5.1383 9.41332 5.06769 9.27024 4.942 9.16475C4.81631 9.05926 4.64584 9 4.46809 9C4.29033 9 4.11986 9.05926 3.99417 9.16475C3.86848 9.27024 3.79787 9.41332 3.79787 9.5625C3.79787 9.71168 3.86848 9.85476 3.99417 9.96025C4.11986 10.0657 4.29033 10.125 4.46809 10.125C4.64584 10.125 4.81631 10.0657 4.942 9.96025C5.06769 9.85476 5.1383 9.71168 5.1383 9.5625ZM6.70213 8.25C6.87988 8.25 7.05035 8.19074 7.17604 8.08525C7.30173 7.97976 7.37234 7.83668 7.37234 7.6875C7.37234 7.53832 7.30173 7.39524 7.17604 7.28975C7.05035 7.18426 6.87988 7.125 6.70213 7.125C6.52438 7.125 6.3539 7.18426 6.22822 7.28975C6.10253 7.39524 6.03192 7.53832 6.03192 7.6875C6.03192 7.83668 6.10253 7.97976 6.22822 8.08525C6.3539 8.19074 6.52438 8.25 6.70213 8.25ZM7.37234 9.5625C7.37234 9.41332 7.30173 9.27024 7.17604 9.16475C7.05035 9.05926 6.87988 9 6.70213 9C6.52438 9 6.3539 9.05926 6.22822 9.16475C6.10253 9.27024 6.03192 9.41332 6.03192 9.5625C6.03192 9.71168 6.10253 9.85476 6.22822 9.96025C6.3539 10.0657 6.52438 10.125 6.70213 10.125C6.87988 10.125 7.05035 10.0657 7.17604 9.96025C7.30173 9.85476 7.37234 9.71168 7.37234 9.5625ZM3.57447 1.125C3.32872 1.125 3.12766 1.29375 3.12766 1.5C3.12766 1.70625 3.32872 1.875 3.57447 1.875H5.3617C5.60745 1.875 5.80851 1.70625 5.80851 1.5C5.80851 1.29375 5.60745 1.125 5.3617 1.125H3.57447Z" fill="#1E3050"/>
</g>
<defs>
<clipPath id="clip0_63_224">
<rect width="8.93617" height="12" fill="white"/>
</clipPath>
</defs>
</svg>
