<svg width="12" height="12" viewBox="0 0 12 12" fill="none" xmlns="http://www.w3.org/2000/svg">
<path id="Vector" d="M9.52734 9.36563C9.07969 8.27109 8.00391 7.5 6.75 7.5H5.25C3.99609 7.5 2.92031 8.27109 2.47266 9.36563C1.63828 8.48906 1.125 7.30547 1.125 6C1.125 3.30703 3.30703 1.125 6 1.125C8.69297 1.125 10.875 3.30703 10.875 6C10.875 7.30547 10.3617 8.48906 9.52734 9.36563ZM8.5875 10.132C7.8375 10.6031 6.95156 10.875 6 10.875C5.04844 10.875 4.1625 10.6031 3.41016 10.132C3.58125 9.27187 4.34062 8.625 5.25 8.625H6.75C7.65938 8.625 8.41875 9.27187 8.58984 10.132H8.5875ZM6 12C7.5913 12 9.11742 11.3679 10.2426 10.2426C11.3679 9.11742 12 7.5913 12 6C12 4.4087 11.3679 2.88258 10.2426 1.75736C9.11742 0.632141 7.5913 0 6 0C4.4087 0 2.88258 0.632141 1.75736 1.75736C0.632141 2.88258 0 4.4087 0 6C0 7.5913 0.632141 9.11742 1.75736 10.2426C2.88258 11.3679 4.4087 12 6 12ZM6 5.625C5.75136 5.625 5.5129 5.52623 5.33709 5.35041C5.16127 5.1746 5.0625 4.93614 5.0625 4.6875C5.0625 4.43886 5.16127 4.2004 5.33709 4.02459C5.5129 3.84877 5.75136 3.75 6 3.75C6.24864 3.75 6.4871 3.84877 6.66291 4.02459C6.83873 4.2004 6.9375 4.43886 6.9375 4.6875C6.9375 4.93614 6.83873 5.1746 6.66291 5.35041C6.4871 5.52623 6.24864 5.625 6 5.625ZM3.9375 4.6875C3.9375 5.23451 4.1548 5.75911 4.54159 6.14591C4.92839 6.5327 5.45299 6.75 6 6.75C6.54701 6.75 7.07161 6.5327 7.45841 6.14591C7.8452 5.75911 8.0625 5.23451 8.0625 4.6875C8.0625 4.14049 7.8452 3.61589 7.45841 3.22909C7.07161 2.8423 6.54701 2.625 6 2.625C5.45299 2.625 4.92839 2.8423 4.54159 3.22909C4.1548 3.61589 3.9375 4.14049 3.9375 4.6875Z" fill="#1E3050"/>
</svg>
